<svg width="36" height="36" viewBox="0 0 36 36" fill="none" xmlns="http://www.w3.org/2000/svg">
<g clipPath="url(#clip0_50_274)">
<path d="M26.5165 26.5165C28.8607 24.1723 30.1777 20.9929 30.1777 17.6777C30.1777 14.3625 28.8607 11.183 26.5165 8.83884C24.1723 6.49463 20.9929 5.17767 17.6777 5.17767C14.3625 5.17767 11.183 6.49463 8.83883 8.83884C6.49463 11.183 5.17767 14.3625 5.17767 17.6777C5.17767 20.9929 6.49463 24.1723 8.83883 26.5165C11.183 28.8607 14.3625 30.1777 17.6777 30.1777C20.9929 30.1777 24.1723 28.8607 26.5165 26.5165ZM12.0843 17.6777C12.0843 17.0286 12.6092 16.5038 13.2548 16.5072H16.5003V13.2617C16.5003 12.6126 17.0251 12.0878 17.6708 12.0913C18.3164 12.0947 18.8447 12.6161 18.8412 13.2617L18.8412 16.5072L22.0867 16.5072C22.7358 16.5072 23.2606 17.032 23.2572 17.6777C23.2537 18.3233 22.7324 18.8516 22.0867 18.8481L18.8412 18.8481L18.8412 22.0936C18.8412 22.7427 18.3164 23.2675 17.6708 23.2641C17.0251 23.2606 16.4969 22.7393 16.5003 22.0936V18.8481H13.2548C12.6057 18.8481 12.0809 18.3233 12.0843 17.6777Z" fill="#393939"/>
</g>
<defs>
<clipPath id="clip0_50_274">
<rect width="25" height="25" fill="white" transform="translate(0 17.6777) rotate(-45)"/>
</clipPath>
</defs>
</svg>
